<?xml version="1.0" encoding="iso-8859-1"?>
<!-- Generator: Adobe Illustrator 19.0.0, SVG Export Plug-In . SVG Version: 6.00 Build 0)  -->
<svg version="1.1" id="Capa_1" xmlns="http://www.w3.org/2000/svg" xmlns:xlink="http://www.w3.org/1999/xlink" x="0px" y="0px"
	 viewBox="0 0 512 512" style="enable-background:new 0 0 512 512;" xml:space="preserve">
<g>
	<g>
		<path d="M511.812,167.165c-1.702-36.088-16.232-70.306-40.914-96.353c-25.567-26.981-59.251-41.993-94.847-42.272
			c-34.009-0.257-63.948,12.15-88.992,36.905c-14.257,14.091-24.699,30.11-32.057,44.104c-7.358-13.994-17.8-30.013-32.057-44.104
			c-25.047-24.754-55.004-37.158-88.993-36.905c-35.545,0.278-68.917,15.336-93.967,42.4C16.029,96.82,1.896,130.993,0.19,167.165
			c-4.464,94.635,70.036,158.12,182.806,254.216c19.824,16.893,40.324,34.362,62.129,53.441l9.877,8.643l9.877-8.643
			c23.121-20.23,44.813-38.641,65.789-56.445C442.411,323.538,516.232,260.884,511.812,167.165z M439.818,275.475
			c-29.97,36.353-73.478,73.279-128.562,120.03c-18.057,15.325-36.642,31.099-56.253,48.129
			c-18.29-15.892-35.664-30.698-52.55-45.087c-55.77-47.524-99.819-85.061-130.02-121.835
			c-30.986-37.731-44.024-71.079-42.276-108.133c2.89-61.271,48.585-109.605,104.029-110.039c0.271-0.002,0.533-0.003,0.803-0.003
			c57.965,0,87.525,49.314,100.005,78.802c3.424,8.09,11.278,13.318,20.007,13.318c8.729,0,16.583-5.228,20.007-13.318
			c12.48-29.49,42.033-78.801,100.004-78.801c0.267,0,0.535,0.001,0.803,0.003c55.624,0.435,103.188,49.799,106.029,110.039
			C483.57,205.158,470.609,238.125,439.818,275.475z"/>
	</g>
</g>
<g>
</g>
<g>
</g>
<g>
</g>
<g>
</g>
<g>
</g>
<g>
</g>
<g>
</g>
<g>
</g>
<g>
</g>
<g>
</g>
<g>
</g>
<g>
</g>
<g>
</g>
<g>
</g>
<g>
</g>
</svg>
